<?xml version="1.0" encoding="UTF-8" standalone="no"?><!DOCTYPE svg PUBLIC "-//W3C//DTD SVG 1.1//EN" "http://www.w3.org/Graphics/SVG/1.1/DTD/svg11.dtd"><svg 
  viewBox="0 0 20 20"
  xmlns="http://www.w3.org/2000/svg"
  style="fill-rule:evenodd;clip-rule:evenodd;stroke-linecap:round;stroke-linejoin:round;stroke-miterlimit:1.5;"
><g id="tg-star"><path id="background" d="M0.89,8.822c-0.314,-0.399 -0.23,-1.305 0.241,-1.494c0.965,-0.388 4.89,-0.691 5.24,-0.854c0.262,-0.122 1.895,-3.917 2.716,-4.967c0.264,-0.337 0.976,-1.146 1.785,-0.149c0.765,0.943 1.3,3.881 2.697,4.921c1.397,1.04 4.243,0.506 5.161,1.106c0.565,0.37 0.738,1.056 0.382,1.544c-0.523,0.714 -1.714,1.738 -2.492,2.458c-0.918,0.849 -1.219,0.909 -1.244,1.933c-0.026,1.092 0.486,4.148 0.522,4.814c0.026,0.488 -0.946,1.098 -1.416,0.966c-0.974,-0.272 -3.418,-2.36 -4.562,-2.344c-1.159,0.016 -3.713,2.085 -4.693,2.344c-0.459,0.121 -1.147,-0.319 -1.183,-0.792c-0.065,-0.837 -0.076,-3.09 0.795,-4.229c1.148,-1.5 5.791,-2.935 5.636,-3.436c-0.155,-0.501 -4.764,0.766 -6.373,0.449c-1.317,-0.259 -2.72,-1.646 -3.211,-2.27Z" style="fill:#ffefc0;"/><path id="fill" d="M1.499,9.65c-0.314,-0.399 -0.23,-1.305 0.241,-1.494c0.965,-0.388 4.89,-0.691 5.24,-0.854c0.262,-0.122 1.895,-3.917 2.716,-4.967c0.264,-0.337 0.976,-1.146 1.785,-0.149c0.765,0.943 1.194,4.2 2.59,5.24c1.397,1.04 4.332,0.343 5.225,0.978c0.31,0.221 -0.134,0.419 -0.491,0.906c-0.523,0.714 -1.565,1.589 -2.344,2.309c-0.918,0.849 -0.815,1.504 -0.84,2.528c-0.026,1.092 0.316,3.638 0.352,4.303c0.026,0.488 -0.882,0.801 -1.352,0.669c-0.974,-0.272 -3.478,-2.275 -4.622,-2.259c-1.159,0.016 -3.143,2.001 -4.122,2.259c-0.459,0.121 -1.189,0.489 -1.226,0.015c-0.065,-0.837 -0.076,-3.09 0.795,-4.229c1.148,-1.5 5.791,-2.935 5.636,-3.436c-0.155,-0.501 -4.871,0.149 -6.479,-0.168c-1.317,-0.259 -2.613,-1.029 -3.105,-1.653Z" style="fill:url(#_Linear1);"/><path id="border" d="M0.89,8.822c-0.314,-0.399 -0.23,-1.305 0.241,-1.494c0.965,-0.388 4.89,-0.691 5.24,-0.854c0.262,-0.122 1.895,-3.917 2.716,-4.967c0.264,-0.337 0.976,-1.146 1.785,-0.149c0.765,0.943 1.3,3.881 2.697,4.921c1.397,1.04 4.243,0.506 5.161,1.106c0.565,0.37 0.738,1.056 0.382,1.544c-0.523,0.714 -1.714,1.738 -2.492,2.458c-0.918,0.849 -1.219,0.909 -1.244,1.933c-0.026,1.092 0.486,4.148 0.522,4.814c0.026,0.488 -0.946,1.098 -1.416,0.966c-0.974,-0.272 -3.418,-2.36 -4.562,-2.344c-1.159,0.016 -3.713,2.085 -4.693,2.344c-0.459,0.121 -1.147,-0.319 -1.183,-0.792c-0.065,-0.837 -0.076,-3.09 0.795,-4.229c1.148,-1.5 5.791,-2.935 5.636,-3.436c-0.155,-0.501 -4.764,0.766 -6.373,0.449c-1.317,-0.259 -2.72,-1.646 -3.211,-2.27Z" style="fill:none;stroke:url(#_Linear2);stroke-width:1px;"/></g><defs><linearGradient id="_Linear1" x1="0" y1="0" x2="1" y2="0" gradientUnits="userSpaceOnUse" gradientTransform="matrix(18.088889,0,0,17.66608,1.312378,10.539051)"><stop offset="0" style="stop-color:#ffcd42;stop-opacity:1"/><stop offset="0.56" style="stop-color:#ffbe30;stop-opacity:1"/><stop offset="1" style="stop-color:#ffb829;stop-opacity:1"/></linearGradient><linearGradient id="_Linear2" x1="0" y1="0" x2="1" y2="0" gradientUnits="userSpaceOnUse" gradientTransform="matrix(18.593212,0,0,18.243116,0.703394,10)"><stop offset="0" style="stop-color:#e68c0f;stop-opacity:1"/><stop offset="1" style="stop-color:#ec7813;stop-opacity:1"/></linearGradient></defs></svg>